<svg width="21" height="21" viewBox="0 0 21 21" fill="none" xmlns="http://www.w3.org/2000/svg">
<path fill-rule="evenodd" clip-rule="evenodd" d="M7.43013 0.824097H13.5699C19.1733 0.824097 20.5 2.15084 20.5 7.75422V13.894C20.5 19.4973 19.1733 20.8241 13.5699 20.8241H7.43013C1.82675 20.8241 0.5 19.4973 0.5 13.894V7.75422C0.5 2.15084 1.82675 0.824097 7.43013 0.824097Z" fill="#4680C2"/>
<path fill-rule="evenodd" clip-rule="evenodd" d="M16.8464 7.20787C16.9452 6.89737 16.8464 6.67153 16.4089 6.67153H14.9551C14.5881 6.67153 14.4188 6.86912 14.32 7.08087C14.32 7.08087 13.5719 8.88749 12.5274 10.059C12.1887 10.3977 12.0334 10.5106 11.85 10.5106C11.7511 10.5106 11.6241 10.3977 11.6241 10.0872V7.19374C11.6241 6.82678 11.5112 6.65741 11.2007 6.65741H8.91417C8.68834 6.65741 8.54721 6.82678 8.54721 6.99616C8.54721 7.34903 9.06942 7.4337 9.12588 8.4217V10.5671C9.12588 11.0329 9.04121 11.1175 8.85771 11.1175C8.36371 11.1175 7.164 9.29678 6.44417 7.22199C6.303 6.81266 6.16188 6.65741 5.79492 6.65741H4.327C3.90358 6.65741 3.83301 6.85503 3.83301 7.06674C3.83301 7.44783 4.327 9.36737 6.13363 11.908C7.33338 13.644 9.04121 14.5755 10.5797 14.5755C11.5112 14.5755 11.6241 14.3638 11.6241 14.011V12.6984C11.6241 12.2749 11.7088 12.2044 12.0052 12.2044C12.2169 12.2044 12.598 12.3172 13.459 13.15C14.447 14.138 14.6163 14.5897 15.1668 14.5897H16.6206C17.044 14.5897 17.2416 14.378 17.1287 13.9686C17.0017 13.5593 16.5218 12.9665 15.9008 12.2608C15.562 11.8656 15.0539 11.4281 14.8986 11.2163C14.6869 10.9341 14.7434 10.8212 14.8986 10.5671C14.8845 10.5671 16.6629 8.05474 16.8464 7.20787Z" fill="white"/>
</svg>
